<svg xmlns="http://www.w3.org/2000/svg" xmlns:xlink="http://www.w3.org/1999/xlink" width="500" zoomAndPan="magnify" viewBox="0 0 375 374.999991" height="500" preserveAspectRatio="xMidYMid meet" version="1.0"><defs><g/><clipPath id="id1"><path d="M 179 105.976562 L 231 105.976562 L 231 163 L 179 163 Z M 179 105.976562 " clip-rule="nonzero"/></clipPath><clipPath id="id2"><path d="M 112.5 160 L 171 160 L 171 218 L 112.5 218 Z M 112.5 160 " clip-rule="nonzero"/></clipPath><clipPath id="id3"><path d="M 151 188 L 262.5 188 L 262.5 212 L 151 212 Z M 151 188 " clip-rule="nonzero"/></clipPath></defs><g clip-path="url(#id1)"><path fill="#000000" d="M 185.21875 105.976562 C 194.328125 114.738281 208.296875 129.03125 217.257812 137.980469 L 220.417969 134.890625 L 230.609375 145.082031 L 213.460938 162.253906 L 203.265625 151.996094 L 206.054688 149.171875 L 179.5625 122.703125 Z M 185.21875 105.976562 " fill-opacity="1" fill-rule="evenodd"/></g><g clip-path="url(#id2)"><path fill="#ffcc03" d="M 112.507812 202.371094 C 127.652344 187.875 141.992188 174.195312 156.453125 160.375 L 170.164062 174.085938 C 156.34375 188.535156 142.652344 202.863281 128.136719 217.996094 Z M 112.507812 202.371094 " fill-opacity="1" fill-rule="evenodd"/></g><path fill="#000000" d="M 200.589844 142.269531 L 188.246094 129.925781 C 188 130.160156 187.753906 130.398438 187.503906 130.632812 C 183.484375 134.496094 179.507812 138.304688 175.574219 142.082031 C 175.09375 142.539062 174.601562 143.011719 174.121094 143.46875 C 178.566406 147.726562 182.957031 151.925781 187.335938 156.117188 C 187.796875 155.636719 188.265625 155.152344 188.726562 154.660156 C 192.402344 150.816406 196.121094 146.929688 199.882812 143 C 200.117188 142.753906 200.355469 142.519531 200.589844 142.269531 Z M 200.589844 142.269531 " fill-opacity="1" fill-rule="evenodd"/><path fill="#000000" d="M 238.453125 202.203125 C 234.890625 198.785156 231.359375 195.425781 227.878906 192.085938 C 220.046875 194.011719 212.644531 196.980469 205.441406 199.667969 C 211.140625 205.628906 216.910156 211.65625 222.824219 217.816406 Z M 219.925781 184.480469 C 200.824219 166.242188 182.453125 148.699219 162.714844 129.746094 L 150.371094 142.09375 C 166.558594 158.996094 181.738281 174.890625 197.21875 191.089844 C 204.777344 188.679688 212.363281 186.117188 219.925781 184.480469 Z M 219.925781 184.480469 " fill-opacity="1" fill-rule="evenodd"/><g clip-path="url(#id3)"><path fill="#000000" d="M 151.277344 199.847656 C 186.53125 215.261719 226.824219 168.933594 262.492188 199.132812 C 216.796875 183.148438 189.164062 233.476562 151.277344 199.847656 Z M 151.277344 199.847656 " fill-opacity="1" fill-rule="evenodd"/></g><g fill="#000000" fill-opacity="1"><g transform="translate(137.167964, 251.977147)"><g><path d="M 3.515625 -15.03125 C 5.304688 -16.726562 7.507812 -17.578125 10.125 -17.578125 C 12.738281 -17.578125 14.9375 -16.726562 16.71875 -15.03125 C 18.507812 -13.34375 19.40625 -11.25 19.40625 -8.75 C 19.40625 -6.25 18.507812 -4.144531 16.71875 -2.4375 C 14.9375 -0.726562 12.738281 0.125 10.125 0.125 C 7.507812 0.125 5.304688 -0.726562 3.515625 -2.4375 C 1.734375 -4.144531 0.84375 -6.25 0.84375 -8.75 C 0.84375 -11.25 1.734375 -13.34375 3.515625 -15.03125 Z M 10.15625 -14.921875 C 8.414062 -14.921875 6.925781 -14.320312 5.6875 -13.125 C 4.457031 -11.9375 3.84375 -10.476562 3.84375 -8.75 C 3.84375 -7.019531 4.460938 -5.550781 5.703125 -4.34375 C 6.953125 -3.132812 8.429688 -2.53125 10.140625 -2.53125 C 11.859375 -2.53125 13.328125 -3.132812 14.546875 -4.34375 C 15.765625 -5.550781 16.375 -7.019531 16.375 -8.75 C 16.375 -10.476562 15.765625 -11.9375 14.546875 -13.125 C 13.328125 -14.320312 11.863281 -14.921875 10.15625 -14.921875 Z M 10.15625 -14.921875 "/></g></g></g><g fill="#000000" fill-opacity="1"><g transform="translate(157.414759, 251.977147)"><g><path d="M 2.296875 -17.5 L 9.28125 -17.5 C 11.476562 -17.5 13.179688 -16.976562 14.390625 -15.9375 C 15.597656 -14.894531 16.203125 -13.425781 16.203125 -11.53125 C 16.203125 -9.539062 15.597656 -8 14.390625 -6.90625 C 13.179688 -5.820312 11.476562 -5.28125 9.28125 -5.28125 L 5.25 -5.28125 L 5.25 0 L 2.296875 0 Z M 5.25 -14.84375 L 5.25 -7.921875 L 9.15625 -7.921875 C 11.96875 -7.921875 13.375 -9.097656 13.375 -11.453125 C 13.375 -13.710938 11.96875 -14.84375 9.15625 -14.84375 Z M 5.25 -14.84375 "/></g></g></g><g fill="#000000" fill-opacity="1"><g transform="translate(174.237092, 251.977147)"><g><path d="M 14.25 -14.84375 L 8.703125 -14.84375 L 8.703125 0 L 5.75 0 L 5.75 -14.84375 L 0.21875 -14.84375 L 0.21875 -17.5 L 14.25 -17.5 Z M 14.25 -14.84375 "/></g></g></g><g fill="#000000" fill-opacity="1"><g transform="translate(188.709804, 251.977147)"><g><path d="M 5.25 0 L 2.296875 0 L 2.296875 -17.5 L 5.25 -17.5 Z M 5.25 0 "/></g></g></g><g fill="#000000" fill-opacity="1"><g transform="translate(196.258613, 251.977147)"><g><path d="M 20.796875 0 L 18.078125 0 L 18.046875 -13.078125 L 12.53125 -1.828125 L 10.59375 -1.828125 L 5.078125 -13.078125 L 5.078125 0 L 2.296875 0 L 2.296875 -17.5 L 5.796875 -17.5 L 11.578125 -5.875 L 17.328125 -17.5 L 20.796875 -17.5 Z M 20.796875 0 "/></g></g></g><g fill="#000000" fill-opacity="1"><g transform="translate(219.379945, 251.977147)"><g><path d="M 13.59375 -3.953125 L 4.78125 -3.953125 L 3.09375 0 L 0.03125 0 L 7.75 -17.5 L 10.78125 -17.5 L 18.421875 0 L 15.28125 0 Z M 12.46875 -6.578125 L 9.171875 -14.34375 L 5.875 -6.578125 Z M 12.46875 -6.578125 "/></g></g></g></svg>