<svg xmlns="http://www.w3.org/2000/svg" xmlns:xlink="http://www.w3.org/1999/xlink" width="500" zoomAndPan="magnify" viewBox="0 0 375 374.999991" height="500" preserveAspectRatio="xMidYMid meet" version="1.0"><defs><g/><clipPath id="id1"><path d="M 77 58.035156 L 130 58.035156 L 130 116 L 77 116 Z M 77 58.035156 " clip-rule="nonzero"/></clipPath><clipPath id="id2"><path d="M 9.886719 113 L 69 113 L 69 173 L 9.886719 173 Z M 9.886719 113 " clip-rule="nonzero"/></clipPath><clipPath id="id3"><path d="M 49 142 L 162.136719 142 L 162.136719 166 L 49 166 Z M 49 142 " clip-rule="nonzero"/></clipPath></defs><g clip-path="url(#id1)"><path fill="#000000" d="M 83.695312 58.035156 C 92.941406 66.949219 107.117188 81.496094 116.214844 90.605469 L 119.417969 87.457031 L 129.765625 97.832031 L 112.359375 115.308594 L 102.011719 104.867188 L 104.84375 101.992188 L 77.953125 75.054688 Z M 83.695312 58.035156 " fill-opacity="1" fill-rule="evenodd"/></g><g clip-path="url(#id2)"><path fill="#ffcc03" d="M 9.898438 156.128906 C 25.269531 141.378906 39.820312 127.460938 54.5 113.390625 L 68.414062 127.34375 C 54.386719 142.050781 40.492188 156.632812 25.757812 172.03125 Z M 9.898438 156.128906 " fill-opacity="1" fill-rule="evenodd"/></g><path fill="#000000" d="M 99.296875 94.972656 L 86.765625 82.410156 C 86.515625 82.648438 86.265625 82.886719 86.015625 83.125 C 81.933594 87.058594 77.898438 90.933594 73.90625 94.777344 C 73.417969 95.246094 72.917969 95.722656 72.429688 96.191406 C 76.941406 100.523438 81.398438 104.796875 85.84375 109.0625 C 86.3125 108.570312 86.789062 108.082031 87.253906 107.578125 C 90.984375 103.667969 94.757812 99.714844 98.578125 95.710938 C 98.816406 95.460938 99.054688 95.222656 99.296875 94.972656 Z M 99.296875 94.972656 " fill-opacity="1" fill-rule="evenodd"/><path fill="#000000" d="M 137.722656 155.957031 C 134.109375 152.480469 130.527344 149.0625 126.992188 145.664062 C 119.042969 147.625 111.527344 150.644531 104.21875 153.382812 C 110.003906 159.445312 115.859375 165.578125 121.863281 171.847656 Z M 118.917969 137.925781 C 99.535156 119.367188 80.886719 101.515625 60.855469 82.226562 L 48.324219 94.789062 C 64.753906 111.992188 80.160156 128.167969 95.875 144.648438 C 103.546875 142.199219 111.246094 139.589844 118.917969 137.925781 Z M 118.917969 137.925781 " fill-opacity="1" fill-rule="evenodd"/><g clip-path="url(#id3)"><path fill="#000000" d="M 49.246094 153.566406 C 85.027344 169.25 125.921875 122.101562 162.121094 152.835938 C 115.746094 136.566406 87.699219 187.785156 49.246094 153.566406 Z M 49.246094 153.566406 " fill-opacity="1" fill-rule="evenodd"/></g><g fill="#000000" fill-opacity="1"><g transform="translate(156.310812, 143.564327)"><g><path d="M 7.140625 -30.484375 C 10.765625 -33.921875 15.226562 -35.640625 20.53125 -35.640625 C 25.84375 -35.640625 30.304688 -33.921875 33.921875 -30.484375 C 37.535156 -27.054688 39.34375 -22.804688 39.34375 -17.734375 C 39.34375 -12.671875 37.535156 -8.40625 33.921875 -4.9375 C 30.304688 -1.476562 25.84375 0.25 20.53125 0.25 C 15.226562 0.25 10.765625 -1.476562 7.140625 -4.9375 C 3.523438 -8.40625 1.71875 -12.671875 1.71875 -17.734375 C 1.71875 -22.804688 3.523438 -27.054688 7.140625 -30.484375 Z M 20.578125 -30.265625 C 17.066406 -30.265625 14.0625 -29.054688 11.5625 -26.640625 C 9.0625 -24.222656 7.8125 -21.253906 7.8125 -17.734375 C 7.8125 -14.222656 9.066406 -11.242188 11.578125 -8.796875 C 14.097656 -6.347656 17.097656 -5.125 20.578125 -5.125 C 24.066406 -5.125 27.039062 -6.347656 29.5 -8.796875 C 31.96875 -11.242188 33.203125 -14.222656 33.203125 -17.734375 C 33.203125 -21.253906 31.96875 -24.222656 29.5 -26.640625 C 27.039062 -29.054688 24.066406 -30.265625 20.578125 -30.265625 Z M 20.578125 -30.265625 "/></g></g></g><g fill="#000000" fill-opacity="1"><g transform="translate(197.370443, 143.564327)"><g><path d="M 4.671875 -35.484375 L 18.8125 -35.484375 C 23.269531 -35.484375 26.722656 -34.425781 29.171875 -32.3125 C 31.628906 -30.207031 32.859375 -27.226562 32.859375 -23.375 C 32.859375 -19.351562 31.628906 -16.234375 29.171875 -14.015625 C 26.722656 -11.804688 23.269531 -10.703125 18.8125 -10.703125 L 10.640625 -10.703125 L 10.640625 0 L 4.671875 0 Z M 10.640625 -30.125 L 10.640625 -16.078125 L 18.5625 -16.078125 C 24.269531 -16.078125 27.125 -18.457031 27.125 -23.21875 C 27.125 -27.820312 24.269531 -30.125 18.5625 -30.125 Z M 10.640625 -30.125 "/></g></g></g><g fill="#000000" fill-opacity="1"><g transform="translate(231.485414, 143.564327)"><g><path d="M 28.90625 -30.125 L 17.640625 -30.125 L 17.640625 0 L 11.65625 0 L 11.65625 -30.125 L 0.453125 -30.125 L 0.453125 -35.484375 L 28.90625 -35.484375 Z M 28.90625 -30.125 "/></g></g></g><g fill="#000000" fill-opacity="1"><g transform="translate(260.835449, 143.564327)"><g><path d="M 10.640625 0 L 4.671875 0 L 4.671875 -35.484375 L 10.640625 -35.484375 Z M 10.640625 0 "/></g></g></g><g fill="#000000" fill-opacity="1"><g transform="translate(276.144104, 143.564327)"><g><path d="M 42.1875 0 L 36.65625 0 L 36.609375 -26.515625 L 25.40625 -3.703125 L 21.5 -3.703125 L 10.296875 -26.515625 L 10.296875 0 L 4.671875 0 L 4.671875 -35.484375 L 11.765625 -35.484375 L 23.46875 -11.921875 L 35.140625 -35.484375 L 42.1875 -35.484375 Z M 42.1875 0 "/></g></g></g><g fill="#000000" fill-opacity="1"><g transform="translate(323.033181, 143.564327)"><g><path d="M 27.578125 -8.015625 L 9.6875 -8.015625 L 6.28125 0 L 0.046875 0 L 15.71875 -35.484375 L 21.859375 -35.484375 L 37.375 0 L 30.984375 0 Z M 25.296875 -13.328125 L 18.609375 -29.109375 L 11.921875 -13.328125 Z M 25.296875 -13.328125 "/></g></g></g></svg>