<svg xmlns="http://www.w3.org/2000/svg" xmlns:xlink="http://www.w3.org/1999/xlink" width="500" zoomAndPan="magnify" viewBox="0 0 375 374.999991" height="500" preserveAspectRatio="xMidYMid meet" version="1.0"><defs><g/><clipPath id="id1"><path d="M 172 37.5 L 269 37.5 L 269 144 L 172 144 Z M 172 37.5 " clip-rule="nonzero"/></clipPath><clipPath id="id2"><path d="M 46.847656 139 L 155 139 L 155 248 L 46.847656 248 Z M 46.847656 139 " clip-rule="nonzero"/></clipPath><clipPath id="id3"><path d="M 119 192 L 328.097656 192 L 328.097656 236 L 119 236 Z M 119 192 " clip-rule="nonzero"/></clipPath></defs><g clip-path="url(#id1)"><path fill="#000000" d="M 183.199219 37.5 C 200.273438 53.9375 226.464844 80.757812 243.265625 97.554688 L 249.191406 91.753906 L 268.304688 110.882812 L 236.148438 143.105469 L 217.035156 123.851562 L 222.265625 118.554688 L 172.589844 68.882812 Z M 183.199219 37.5 " fill-opacity="1" fill-rule="evenodd"/></g><g clip-path="url(#id2)"><path fill="#ffcc03" d="M 46.867188 218.378906 C 75.261719 191.175781 102.148438 165.511719 129.261719 139.574219 L 154.96875 165.300781 C 129.050781 192.417969 103.386719 219.300781 76.167969 247.699219 Z M 46.867188 218.378906 " fill-opacity="1" fill-rule="evenodd"/></g><path fill="#000000" d="M 212.015625 105.605469 L 188.871094 82.441406 C 188.40625 82.882812 187.945312 83.324219 187.484375 83.765625 C 179.941406 91.015625 172.488281 98.164062 165.113281 105.246094 C 164.210938 106.109375 163.289062 106.992188 162.382812 107.855469 C 170.722656 115.839844 178.957031 123.722656 187.167969 131.585938 C 188.027344 130.683594 188.910156 129.777344 189.773438 128.851562 C 196.660156 121.644531 203.632812 114.347656 210.691406 106.972656 C 211.132812 106.507812 211.574219 106.066406 212.015625 105.605469 Z M 212.015625 105.605469 " fill-opacity="1" fill-rule="evenodd"/><path fill="#000000" d="M 283.003906 218.0625 C 276.328125 211.652344 269.710938 205.34375 263.179688 199.082031 C 248.496094 202.695312 234.613281 208.265625 221.109375 213.3125 C 231.800781 224.496094 242.617188 235.804688 253.707031 247.363281 Z M 248.265625 184.808594 C 212.457031 150.585938 178.011719 117.671875 141.003906 82.105469 L 117.859375 105.269531 C 148.207031 136.988281 176.667969 166.816406 205.691406 197.210938 C 219.871094 192.691406 234.089844 187.878906 248.265625 184.808594 Z M 248.265625 184.808594 " fill-opacity="1" fill-rule="evenodd"/><g clip-path="url(#id3)"><path fill="#000000" d="M 119.558594 213.648438 C 185.65625 242.570312 261.203125 155.632812 328.078125 212.300781 C 242.40625 182.308594 190.589844 276.75 119.558594 213.648438 Z M 119.558594 213.648438 " fill-opacity="1" fill-rule="evenodd"/></g><g fill="#000000" fill-opacity="1"><g transform="translate(117.046872, 303.661298)"><g><path d="M 4.9375 -21.046875 C 7.4375 -23.421875 10.515625 -24.609375 14.171875 -24.609375 C 17.835938 -24.609375 20.914062 -23.421875 23.40625 -21.046875 C 25.90625 -18.679688 27.15625 -15.75 27.15625 -12.25 C 27.15625 -8.75 25.90625 -5.800781 23.40625 -3.40625 C 20.914062 -1.019531 17.835938 0.171875 14.171875 0.171875 C 10.515625 0.171875 7.4375 -1.019531 4.9375 -3.40625 C 2.4375 -5.800781 1.1875 -8.75 1.1875 -12.25 C 1.1875 -15.75 2.4375 -18.679688 4.9375 -21.046875 Z M 14.203125 -20.890625 C 11.773438 -20.890625 9.695312 -20.054688 7.96875 -18.390625 C 6.25 -16.722656 5.390625 -14.675781 5.390625 -12.25 C 5.390625 -9.820312 6.257812 -7.757812 8 -6.0625 C 9.738281 -4.375 11.804688 -3.53125 14.203125 -3.53125 C 16.609375 -3.53125 18.660156 -4.375 20.359375 -6.0625 C 22.066406 -7.757812 22.921875 -9.820312 22.921875 -12.25 C 22.921875 -14.675781 22.066406 -16.722656 20.359375 -18.390625 C 18.660156 -20.054688 16.609375 -20.890625 14.203125 -20.890625 Z M 14.203125 -20.890625 "/></g></g></g><g fill="#000000" fill-opacity="1"><g transform="translate(145.390475, 303.661298)"><g><path d="M 3.21875 -24.5 L 12.984375 -24.5 C 16.066406 -24.5 18.453125 -23.769531 20.140625 -22.3125 C 21.835938 -20.851562 22.6875 -18.796875 22.6875 -16.140625 C 22.6875 -13.359375 21.835938 -11.203125 20.140625 -9.671875 C 18.453125 -8.148438 16.066406 -7.390625 12.984375 -7.390625 L 7.34375 -7.390625 L 7.34375 0 L 3.21875 0 Z M 7.34375 -20.796875 L 7.34375 -11.09375 L 12.8125 -11.09375 C 16.75 -11.09375 18.71875 -12.738281 18.71875 -16.03125 C 18.71875 -19.207031 16.75 -20.796875 12.8125 -20.796875 Z M 7.34375 -20.796875 "/></g></g></g><g fill="#000000" fill-opacity="1"><g transform="translate(168.94016, 303.661298)"><g><path d="M 19.953125 -20.796875 L 12.1875 -20.796875 L 12.1875 0 L 8.046875 0 L 8.046875 -20.796875 L 0.3125 -20.796875 L 0.3125 -24.5 L 19.953125 -24.5 Z M 19.953125 -20.796875 "/></g></g></g><g fill="#000000" fill-opacity="1"><g transform="translate(189.200584, 303.661298)"><g><path d="M 7.34375 0 L 3.21875 0 L 3.21875 -24.5 L 7.34375 -24.5 Z M 7.34375 0 "/></g></g></g><g fill="#000000" fill-opacity="1"><g transform="translate(199.768195, 303.661298)"><g><path d="M 29.125 0 L 25.3125 0 L 25.265625 -18.3125 L 17.53125 -2.5625 L 14.84375 -2.5625 L 7.109375 -18.3125 L 7.109375 0 L 3.21875 0 L 3.21875 -24.5 L 8.125 -24.5 L 16.203125 -8.21875 L 24.25 -24.5 L 29.125 -24.5 Z M 29.125 0 "/></g></g></g><g fill="#000000" fill-opacity="1"><g transform="translate(232.135884, 303.661298)"><g><path d="M 19.046875 -5.53125 L 6.6875 -5.53125 L 4.34375 0 L 0.03125 0 L 10.84375 -24.5 L 15.078125 -24.5 L 25.796875 0 L 21.390625 0 Z M 17.46875 -9.203125 L 12.84375 -20.09375 L 8.21875 -9.203125 Z M 17.46875 -9.203125 "/></g></g></g></svg>