<svg xmlns="http://www.w3.org/2000/svg" xmlns:xlink="http://www.w3.org/1999/xlink" width="500" zoomAndPan="magnify" viewBox="0 0 375 374.999991" height="500" preserveAspectRatio="xMidYMid meet" version="1.0"><defs><g/><clipPath id="id1"><path d="M 76 122.769531 L 129 122.769531 L 129 181 L 76 181 Z M 76 122.769531 " clip-rule="nonzero"/></clipPath><clipPath id="id2"><path d="M 8.785156 178 L 68 178 L 68 237 L 8.785156 237 Z M 8.785156 178 " clip-rule="nonzero"/></clipPath><clipPath id="id3"><path d="M 48 206 L 161.035156 206 L 161.035156 231 L 48 231 Z M 48 206 " clip-rule="nonzero"/></clipPath></defs><g clip-path="url(#id1)"><path fill="#ffcc03" d="M 82.597656 122.769531 C 91.839844 131.683594 106.019531 146.226562 115.113281 155.335938 L 118.320312 152.191406 L 128.664062 162.5625 L 111.257812 180.039062 L 100.914062 169.597656 L 103.742188 166.726562 L 76.855469 139.789062 Z M 82.597656 122.769531 " fill-opacity="1" fill-rule="evenodd"/></g><g clip-path="url(#id2)"><path fill="#ffcc03" d="M 8.796875 220.863281 C 24.167969 206.109375 38.722656 192.191406 53.398438 178.125 L 67.316406 192.078125 C 53.285156 206.78125 39.394531 221.363281 24.65625 236.765625 Z M 8.796875 220.863281 " fill-opacity="1" fill-rule="evenodd"/></g><path fill="#ffcc03" d="M 98.195312 159.703125 L 85.667969 147.140625 C 85.417969 147.378906 85.167969 147.617188 84.917969 147.859375 C 80.835938 151.792969 76.796875 155.667969 72.808594 159.507812 C 72.320312 159.976562 71.820312 160.453125 71.328125 160.921875 C 75.84375 165.253906 80.300781 169.527344 84.746094 173.792969 C 85.210938 173.300781 85.6875 172.8125 86.15625 172.3125 C 89.882812 168.402344 93.660156 164.445312 97.480469 160.445312 C 97.71875 160.191406 97.957031 159.953125 98.195312 159.703125 Z M 98.195312 159.703125 " fill-opacity="1" fill-rule="evenodd"/><path fill="#ffcc03" d="M 136.625 220.691406 C 133.007812 217.214844 129.425781 213.792969 125.890625 210.398438 C 117.945312 212.355469 110.429688 215.378906 103.117188 218.113281 C 108.90625 224.179688 114.761719 230.3125 120.765625 236.582031 Z M 117.820312 202.65625 C 98.433594 184.097656 79.789062 166.246094 59.753906 146.957031 L 47.226562 159.519531 C 63.65625 176.722656 79.0625 192.898438 94.773438 209.382812 C 102.449219 206.929688 110.144531 204.320312 117.820312 202.65625 Z M 117.820312 202.65625 " fill-opacity="1" fill-rule="evenodd"/><g clip-path="url(#id3)"><path fill="#ffcc03" d="M 48.148438 218.296875 C 83.925781 233.980469 124.824219 186.832031 161.023438 217.566406 C 114.648438 201.300781 86.597656 252.519531 48.148438 218.296875 Z M 48.148438 218.296875 " fill-opacity="1" fill-rule="evenodd"/></g><g fill="#ffcc03" fill-opacity="1"><g transform="translate(155.205762, 207.943376)"><g><path d="M 7.140625 -30.484375 C 10.765625 -33.921875 15.226562 -35.640625 20.53125 -35.640625 C 25.84375 -35.640625 30.304688 -33.921875 33.921875 -30.484375 C 37.535156 -27.054688 39.34375 -22.804688 39.34375 -17.734375 C 39.34375 -12.671875 37.535156 -8.40625 33.921875 -4.9375 C 30.304688 -1.476562 25.84375 0.25 20.53125 0.25 C 15.226562 0.25 10.765625 -1.476562 7.140625 -4.9375 C 3.523438 -8.40625 1.71875 -12.671875 1.71875 -17.734375 C 1.71875 -22.804688 3.523438 -27.054688 7.140625 -30.484375 Z M 20.578125 -30.265625 C 17.066406 -30.265625 14.0625 -29.054688 11.5625 -26.640625 C 9.0625 -24.222656 7.8125 -21.253906 7.8125 -17.734375 C 7.8125 -14.222656 9.066406 -11.242188 11.578125 -8.796875 C 14.097656 -6.347656 17.097656 -5.125 20.578125 -5.125 C 24.066406 -5.125 27.039062 -6.347656 29.5 -8.796875 C 31.96875 -11.242188 33.203125 -14.222656 33.203125 -17.734375 C 33.203125 -21.253906 31.96875 -24.222656 29.5 -26.640625 C 27.039062 -29.054688 24.066406 -30.265625 20.578125 -30.265625 Z M 20.578125 -30.265625 "/></g></g></g><g fill="#ffcc03" fill-opacity="1"><g transform="translate(196.269003, 207.943376)"><g><path d="M 4.671875 -35.484375 L 18.8125 -35.484375 C 23.269531 -35.484375 26.722656 -34.425781 29.171875 -32.3125 C 31.628906 -30.207031 32.859375 -27.226562 32.859375 -23.375 C 32.859375 -19.351562 31.628906 -16.234375 29.171875 -14.015625 C 26.722656 -11.804688 23.269531 -10.703125 18.8125 -10.703125 L 10.640625 -10.703125 L 10.640625 0 L 4.671875 0 Z M 10.640625 -30.125 L 10.640625 -16.078125 L 18.5625 -16.078125 C 24.269531 -16.078125 27.125 -18.457031 27.125 -23.21875 C 27.125 -27.820312 24.269531 -30.125 18.5625 -30.125 Z M 10.640625 -30.125 "/></g></g></g><g fill="#ffcc03" fill-opacity="1"><g transform="translate(230.386974, 207.943376)"><g><path d="M 28.90625 -30.125 L 17.640625 -30.125 L 17.640625 0 L 11.65625 0 L 11.65625 -30.125 L 0.453125 -30.125 L 0.453125 -35.484375 L 28.90625 -35.484375 Z M 28.90625 -30.125 "/></g></g></g><g fill="#ffcc03" fill-opacity="1"><g transform="translate(259.739579, 207.943376)"><g><path d="M 10.640625 0 L 4.671875 0 L 4.671875 -35.484375 L 10.640625 -35.484375 Z M 10.640625 0 "/></g></g></g><g fill="#ffcc03" fill-opacity="1"><g transform="translate(275.049576, 207.943376)"><g><path d="M 42.1875 0 L 36.65625 0 L 36.609375 -26.515625 L 25.40625 -3.703125 L 21.5 -3.703125 L 10.296875 -26.515625 L 10.296875 0 L 4.671875 0 L 4.671875 -35.484375 L 11.765625 -35.484375 L 23.46875 -11.921875 L 35.140625 -35.484375 L 42.1875 -35.484375 Z M 42.1875 0 "/></g></g></g><g fill="#ffcc03" fill-opacity="1"><g transform="translate(321.942781, 207.943376)"><g><path d="M 27.578125 -8.015625 L 9.6875 -8.015625 L 6.28125 0 L 0.046875 0 L 15.71875 -35.484375 L 21.859375 -35.484375 L 37.375 0 L 30.984375 0 Z M 25.296875 -13.328125 L 18.609375 -29.109375 L 11.921875 -13.328125 Z M 25.296875 -13.328125 "/></g></g></g></svg>